<?xml version="1.0" encoding="UTF-8" standalone="no"?>
<svg
   xmlns:dc="http://purl.org/dc/elements/1.1/"
   xmlns:cc="http://creativecommons.org/ns#"
   xmlns:rdf="http://www.w3.org/1999/02/22-rdf-syntax-ns#"
   xmlns:svg="http://www.w3.org/2000/svg"
   xmlns="http://www.w3.org/2000/svg"
   xmlns:sodipodi="http://sodipodi.sourceforge.net/DTD/sodipodi-0.dtd"
   xmlns:inkscape="http://www.inkscape.org/namespaces/inkscape"
   inkscape:version="1.0 (4035a4fb49, 2020-05-01)"
   height="26.810577"
   width="133.8017"
   sodipodi:docname="logo.svg"
   version="1.1"
   viewBox="0 0 133.8017 26.810577"
   id="logoipsum">
  <metadata
     id="metadata27">
    <rdf:RDF>
      <cc:Work
         rdf:about="">
        <dc:format>image/svg+xml</dc:format>
        <dc:type
           rdf:resource="http://purl.org/dc/dcmitype/StillImage" />
      </cc:Work>
    </rdf:RDF>
  </metadata>
  <defs
     id="defs25" />
  <sodipodi:namedview
     inkscape:current-layer="logoipsum"
     inkscape:window-maximized="1"
     inkscape:window-y="30"
     inkscape:window-x="0"
     inkscape:cy="13.430281"
     inkscape:cx="67.197009"
     inkscape:zoom="6.7724915"
     showgrid="false"
     id="namedview23"
     inkscape:window-height="1021"
     inkscape:window-width="1920"
     inkscape:pageshadow="2"
     inkscape:pageopacity="0"
     guidetolerance="10"
     gridtolerance="10"
     objecttolerance="10"
     borderopacity="1"
     bordercolor="#666666"
     pagecolor="#ffffff" />
  <path
     id="path2"
     fill="#A78BFA"
     d="M 19.002696,22.189281 1.0626964,9.8142813 c -1.81799998,-1.254 -1.19999998,-3.865 1.067,-4.479 L 21.196696,0.16028127 a 2.7,2.7 0 0 1 3.616,2.49200003 l -1.13,17.5489997 c -0.134,2.083 -2.862,3.242 -4.68,1.988 z" />
  <path
     id="path4"
     fill="#1dace3"
     d="M 13.312696,25.244281 2.7436964,4.5752813 a 2.883,2.883 0 0 1 3.007,-4.16100003 L 25.337696,3.4372813 a 2.883,2.883 0 0 1 2.127,4.162 l -9.023,17.6459997 a 2.883,2.883 0 0 1 -5.129,-10e-4 z" />
  <path
     id="path6"
     fill="#001a49"
     d="m 24.764696,3.3482813 -9.764,-1.507 -11.9879996,3.255 4.785,9.3609997 11.2049996,7.732 a 2.888,2.888 0 0 0 0.806,0.383 l 4.256,-8.323 z" />
  <path
     id="path8"
     fill="#001a49"
     d="m 74.221696,5.7642813 a 1.835,1.835 0 1 1 1.835,1.835 1.854,1.854 0 0 1 -1.835,-1.835 z m 0.306,2.732 h 3.059 V 18.690281 h -3.059 z" />
  <path
     id="path10"
     fill="#001a49"
     d="m 90.796696,13.593281 a 5.119,5.119 0 0 1 -4.872,5.383 3.829,3.829 0 0 1 -3.038,-1.244 v 5.036 h -3.058 V 8.4962813 h 3.058 v 0.958 a 3.829,3.829 0 0 1 3.038,-1.243 5.118,5.118 0 0 1 4.872,5.3819997 z m -3.058,0 a 2.427,2.427 0 1 0 -2.426,2.488 2.327,2.327 0 0 0 2.426,-2.488 z" />
  <path
     id="path12"
     fill="#001a49"
     d="m 100.2357,15.630281 c 0,2.345 -2.039004,3.344 -4.241004,3.344 a 4.463,4.463 0 0 1 -4.383,-2.427 l 2.65,-1.508 a 1.675,1.675 0 0 0 1.733,1.2 c 0.734,0 1.1,-0.225 1.1,-0.632 0,-1.122 -5.015,-0.53 -5.015,-4.058 0,-2.2219997 1.875,-3.3429997 4,-3.3429997 a 4.46,4.46 0 0 1 3.975004,2.1809997 l -2.609004,1.407 a 1.481,1.481 0 0 0 -1.366,-0.9 c -0.53,0 -0.856,0.2 -0.856,0.571 -0.003,1.17 5.012004,0.395 5.012004,4.165 z" />
  <path
     id="path14"
     fill="#001a49"
     d="M 111.4127,8.4962813 V 18.690281 h -3.058 v -0.96 a 3.489,3.489 0 0 1 -2.916,1.244 c -2.059,0 -3.812,-1.468 -3.812,-4.221 V 8.4962813 h 3.058 v 5.8109997 a 1.681,1.681 0 0 0 1.774,1.855 c 1.121,0 1.9,-0.652 1.9,-2.1 V 8.4962813 Z" />
  <path
     id="path16"
     fill="#001a49"
     d="m 128.9407,12.430281 v 6.26 h -3.058 v -5.994 c 0,-1.019 -0.49,-1.672 -1.468,-1.672 -1.02,0 -1.59,0.714 -1.59,1.917 v 5.749 h -3.059 v -5.994 c 0,-1.019 -0.489,-1.672 -1.468,-1.672 -1.019,0 -1.59,0.714 -1.59,1.917 v 5.749 h -3.058 V 8.4962813 h 3.063 v 0.934 a 3.129,3.129 0 0 1 2.732,-1.223 3.034,3.034 0 0 1 2.671,1.345 3.359,3.359 0 0 1 2.957,-1.345 c 2.34,0.004 3.868,1.675 3.868,4.2229997 z" />
  <circle
     id="circle18"
     fill="#001a49"
     r="2.27"
     cy="6.1632829"
     cx="131.53169" />
  <path
     id="path20"
     fill="#001a49"
     d="m 32.469696,3.8072813 h 3.059 V 18.690281 h -3.059 z m 4.791,9.7859997 a 5.4,5.4 0 1 1 5.4,5.383 5.343,5.343 0 0 1 -5.4,-5.383 z m 7.748,0 a 2.345,2.345 0 1 0 -2.345,2.406 2.287,2.287 0 0 0 2.349,-2.406 z m 15.249,-5.0999997 v 9.6849997 c 0,3.425 -2.671,4.872 -5.382,4.872 a 5.212,5.212 0 0 1 -4.832,-2.467 l 2.609,-1.509 a 2.331,2.331 0 0 0 2.325,1.285 2.032,2.032 0 0 0 2.3,-2.181 v -0.938 a 3.622,3.622 0 0 1 -2.977,1.325 5.181,5.181 0 0 1 0,-10.3569997 3.622,3.622 0 0 1 2.977,1.325 v -1.04 z m -2.976,4.8929997 a 2.47,2.47 0 1 0 -2.469,2.369 2.308,2.308 0 0 0 2.469,-2.366 z m 4.708,0.2 a 5.4,5.4 0 1 1 5.4,5.383 5.343,5.343 0 0 1 -5.4,-5.376 z m 7.748,0 a 2.346,2.346 0 1 0 -2.345,2.406 2.287,2.287 0 0 0 2.345,-2.399 z" />
</svg>
