<svg version="1.2" baseProfile="tiny" xmlns="http://www.w3.org/2000/svg" viewBox="0 0 50 50"><g fill="#C3DAFE"><path d="M49.5 6.2l-7.8-6c-.1-.1-.3-.2-.6-.2H5.2c-.3 0-.7.2-.9.5-.1.4-.2.8-.1 1.1l1.9 5.5-1.9 5.5c-.1.4-.1.8.1 1.1.2.3.5.5.9.5h35.9c.2 0 .4-.1.6-.2l7.8-6c.3-.2.5-.6.5-1 0-.3-.2-.6-.5-.8zM43.8 23.8l1.9-5.5c.1-.4.1-.8-.1-1.1-.2-.3-.5-.5-.9-.5H8.9c-.2 0-.4.1-.6.2l-7.8 6c-.3.1-.5.5-.5.9s.2.8.5 1l7.8 6c.1.1.3.2.6.2h35.9c.6 0 1-.5 1-1.2 0-.2-.1-.5-.2-.6l-1.8-5.4zM20.8 48.8c0 .7.5 1.2 1 1.2h6.3c.6 0 1-.5 1-1.2V33.3h-8.3v15.5z"/></g></svg>