<svg version="1.2" baseProfile="tiny" xmlns="http://www.w3.org/2000/svg" viewBox="0 0 50 45"><g fill="#C3DAFE"><path d="M49 0H1C.5 0 0 .5 0 1.1V9h50V1.1c0-.6-.5-1.1-1-1.1zM5.9 6.4c-.2.2-.4.4-.7.4-.3 0-.5-.1-.7-.3-.2-.3-.3-.6-.3-.9 0-.3.1-.6.3-.8.4-.4 1.1-.4 1.5 0 .1.2.3.5.3.8 0 .3-.2.6-.4.8zm4.2 0c-.2.2-.5.4-.7.4-.3 0-.5-.1-.7-.3-.3-.3-.4-.6-.4-.9 0-.3.1-.6.3-.8.4-.4 1.1-.4 1.5 0 .2.2.3.5.3.8 0 .3-.1.6-.3.8zm4.2 0c-.2.2-.5.3-.7.3-.3 0-.5-.1-.7-.3-.2-.2-.3-.5-.3-.8 0-.3.1-.6.3-.8.4-.4 1.1-.4 1.5 0 .2.2.3.5.3.8-.1.3-.2.6-.4.8zM0 43.9c0 .6.5 1.1 1 1.1h48c.6 0 1-.5 1-1.1V11.3H0v32.6zm33.7-24c-.4-.5-.3-1.2.1-1.6.4-.4 1.1-.3 1.5.1l6.3 7.9c.3.4.3 1 0 1.5l-6.3 7.9c-.3.2-.6.3-.9.3-.2 0-.5-.1-.7-.3-.4-.4-.5-1.1-.1-1.6l5.7-7.1-5.6-7.1zm-14.9 19l10.4-24.8c.2-.6.9-.8 1.4-.6.5.3.8.9.5 1.5L20.7 39.8c-.2.4-.6.7-.9.7-.1 0-.3 0-.4-.1-.6-.3-.8-.9-.6-1.5zM8.6 26.3l6.3-7.9c.4-.5 1-.5 1.5-.1.4.4.5 1.1.1 1.6L10.8 27l5.7 7.1c.4.5.3 1.2-.1 1.6-.2.2-.4.3-.7.3-.3 0-.6-.1-.8-.4l-6.3-7.9c-.4-.4-.4-1 0-1.4z"/></g></svg>